<?xml version="1.0" encoding="UTF-8"?>
<svg version="1.1" xmlns="http://www.w3.org/2000/svg" width="512" height="512">
<path d="M0 0 C1.15220032 -0.00571014 2.30440063 -0.01142029 3.49151611 -0.01730347 C4.75182648 -0.01842133 6.01213684 -0.01953918 7.31063843 -0.02069092 C8.65459326 -0.0253216 9.99854678 -0.0303466 11.34249878 -0.03573608 C14.99157682 -0.04884149 18.64063647 -0.05530188 22.28973436 -0.05974674 C24.57265881 -0.06268161 26.85557828 -0.06678729 29.13850021 -0.07125092 C36.29004538 -0.08492346 43.44157911 -0.09459024 50.59313643 -0.09845281 C58.83156249 -0.10292744 67.06982213 -0.12044862 75.30819762 -0.1494534 C81.68630452 -0.17112409 88.0643648 -0.18116002 94.4425081 -0.18249393 C98.2467981 -0.18353848 102.05093162 -0.18937083 105.85518265 -0.20731354 C109.43885667 -0.22388681 113.02225816 -0.22590533 116.60595703 -0.21717453 C118.53393549 -0.21604647 120.46190529 -0.22969377 122.38983154 -0.243927 C133.95858594 -0.18881871 142.97024592 1.82749724 151.34725952 10.14044189 C157.56087731 17.79104196 159.65682726 24.6267299 159.5743103 34.35870361 C159.57460236 35.26666183 159.57489441 36.17462006 159.57519531 37.11009216 C159.57380731 40.09687007 159.558271 43.08339532 159.54257202 46.07012939 C159.53884001 48.14663558 159.53599393 50.22314352 159.53399658 52.2996521 C159.52637495 57.7543833 159.50673904 63.20900732 159.48458862 68.66369629 C159.46409855 74.23405508 159.4549881 79.80443125 159.44491577 85.37481689 C159.4234918 96.29673888 159.38937356 107.21858146 159.34725952 118.14044189 C160.65863892 118.12231445 161.97001831 118.10418701 163.32113647 118.08551025 C165.05510109 118.07085042 166.78906947 118.0566321 168.52304077 118.04278564 C169.38578613 118.0296936 170.24853149 118.01660156 171.13742065 118.00311279 C180.7104856 117.94576158 186.56294506 120.70712545 193.55819702 127.21466064 C200.31577352 134.48864583 202.65220552 142.13231008 202.61468506 151.89202881 C202.61921617 152.76115764 202.62374728 153.63028647 202.6284157 154.52575254 C202.64105405 157.43187525 202.63943966 160.33781041 202.63778687 163.24395752 C202.64377268 165.3304773 202.65057835 167.41699486 202.65814209 169.50350952 C202.67580925 175.16921465 202.68049793 180.83485936 202.68177366 186.50058937 C202.68319604 190.04423779 202.6874674 193.58787089 202.6927681 197.1315155 C202.71127459 209.50592014 202.71943841 221.88028169 202.71786499 234.25469971 C202.71666519 245.76873951 202.73773431 257.28259137 202.76935232 268.79658365 C202.79556202 278.69578888 202.80623023 288.59493294 202.80495417 298.49417257 C202.80444568 304.40007729 202.81006551 310.30581518 202.83131027 316.21168518 C202.8507703 321.77348958 202.8507641 327.33496944 202.83627701 332.89678574 C202.83419705 334.92918755 202.83884087 336.96161008 202.85099792 338.99397659 C202.98790909 363.48449448 195.30634672 377.69880946 179.86288452 396.30450439 C177.84728953 398.74607565 175.87644785 401.22188893 173.90975952 403.70294189 C172.97583374 404.86116455 172.97583374 404.86116455 172.02304077 406.04278564 C170.97779111 407.35117509 169.95079191 408.67461815 168.95272827 410.01934814 C161.91189118 419.08924491 151.38479409 424.61008175 140.34725952 427.14044189 C138.05897879 427.38775768 135.76500404 427.58713769 133.46835327 427.73809814 C132.31649536 427.81681152 131.16463745 427.8955249 129.97787476 427.97662354 C129.10977173 428.03068359 128.2416687 428.08474365 127.34725952 428.14044189 C127.35836258 428.73655273 127.36946564 429.33266357 127.38090515 429.94683838 C127.49190945 436.1764216 127.56709647 442.40572184 127.62191772 448.63604736 C127.64699218 450.95810364 127.68106045 453.28008154 127.72445679 455.60186768 C127.78541757 458.94825631 127.81354101 462.29359742 127.83554077 465.64044189 C127.8613472 466.6709668 127.88715363 467.7014917 127.91374207 468.76324463 C127.91667043 476.36544597 126.09861427 481.08734093 120.9394989 486.66143799 C114.9482341 492.19032173 107.8597375 492.43937616 100.15829468 492.43096924 C99.26464706 492.43768646 98.37099945 492.44440369 97.45027161 492.45132446 C94.512231 492.47023676 91.57441961 492.47422508 88.63632202 492.47637939 C86.58280343 492.48281147 84.52928574 492.48954013 82.47576904 492.49655151 C78.17705155 492.50850696 73.87841433 492.51223406 69.5796814 492.51104736 C64.0865209 492.51084415 58.59387759 492.53815685 53.10083961 492.57259178 C48.86103984 492.59488807 44.62136407 492.59888408 40.38151169 492.59782791 C38.35702099 492.60017934 36.33252663 492.60897692 34.30809402 492.62449265 C31.47003732 492.64421004 28.63309011 492.6382923 25.79501343 492.62628174 C24.96874954 492.63752075 24.14248566 492.64875977 23.29118347 492.66033936 C16.64134811 492.58925463 10.41013207 491.02273782 5.45643044 486.36108971 C1.49952557 481.95909337 -0.91093661 478.23049228 -0.87979126 472.18829346 C-0.8796402 471.20757874 -0.87948914 470.22686401 -0.8793335 469.21643066 C-0.86901093 468.16526062 -0.85868835 467.11409058 -0.84805298 466.03106689 C-0.84522308 464.94912048 -0.84239319 463.86717407 -0.83947754 462.75244141 C-0.82828657 459.29832886 -0.80318368 455.84447602 -0.77774048 452.39044189 C-0.76770929 450.04799772 -0.75858368 447.70554949 -0.75039673 445.36309814 C-0.72835077 439.62212418 -0.69488382 433.8813016 -0.65274048 428.14044189 C-1.5215686 428.08565674 -2.39039673 428.03087158 -3.28555298 427.97442627 C-4.43797485 427.89514893 -5.59039673 427.81587158 -6.77774048 427.73419189 C-7.9146936 427.65878174 -9.05164673 427.58337158 -10.22305298 427.50567627 C-25.42204142 425.88710518 -36.84806305 417.05667678 -46.26724243 405.64898682 C-47.74105087 403.82203016 -49.19759751 401.98228335 -50.65274048 400.14044189 C-51.61143364 398.95478355 -52.57105944 397.76987869 -53.53164673 396.58575439 C-56.29888056 393.14878983 -58.99472718 389.66240975 -61.65274048 386.14044189 C-62.07748657 385.57937744 -62.50223267 385.01831299 -62.93984985 384.44024658 C-71.42937202 373.10114062 -75.80314417 362.70739003 -75.7999115 348.48219299 C-75.80542653 347.17554799 -75.80542653 347.17554799 -75.81105298 345.84250611 C-75.8220648 342.92398978 -75.8259294 340.00550908 -75.82974243 337.0869751 C-75.83600893 334.99411405 -75.8426559 332.90125411 -75.84965515 330.80839539 C-75.87067443 323.93601249 -75.88105505 317.06362942 -75.89102173 310.19122314 C-75.89506998 307.82364579 -75.89918692 305.45606856 -75.90337181 303.08849144 C-75.92241821 291.96553586 -75.93665082 280.84258689 -75.94498378 269.71961814 C-75.95475672 256.8870854 -75.9810802 244.05472512 -76.02148467 231.22225314 C-76.05165685 221.29850981 -76.06645368 211.37481588 -76.06976479 201.45102757 C-76.07211385 195.52622172 -76.08105597 189.60160023 -76.10622597 183.67684364 C-76.12953102 178.10112621 -76.13372997 172.52571425 -76.12346458 166.94996071 C-76.12296972 164.90781131 -76.1292754 162.86564675 -76.14302063 160.82354355 C-76.22702784 147.59890037 -76.05889526 136.99190368 -66.51211548 126.89434814 C-58.91665097 119.72971881 -52.12839888 117.81279346 -41.77774048 118.01544189 C-40.89859985 118.02446533 -40.01945923 118.03348877 -39.11367798 118.04278564 C-36.95991338 118.06619613 -34.80629033 118.1020618 -32.65274048 118.14044189 C-32.66606415 116.98945007 -32.67938782 115.83845825 -32.69311523 114.65258789 C-32.81513458 103.76650665 -32.90487462 92.8805655 -32.96361351 81.9939537 C-32.99482801 76.39796025 -33.03711977 70.80252209 -33.1053772 65.20684814 C-33.17092266 59.79920298 -33.20652071 54.39208944 -33.22200394 48.98407745 C-33.23302735 46.92850637 -33.25455288 44.87296196 -33.28712082 42.81761932 C-33.47886548 30.20674618 -33.55396834 19.83136355 -24.67358398 9.93481445 C-17.93830191 3.34270267 -9.32635867 0.0277155 0 0 Z M-9.56895447 26.78894043 C-11.21931662 30.36974787 -11.04421897 33.90049546 -10.99331665 37.76446533 C-10.99367826 38.647132 -10.99403986 39.52979866 -10.99441242 40.4392128 C-10.99217538 43.29297918 -10.96933949 46.14615584 -10.94570923 48.99981689 C-10.94129773 50.76299761 -10.93823759 52.52618224 -10.93655396 54.28936768 C-10.92083284 60.82311904 -10.87894913 67.35678628 -10.84024048 73.89044189 C-10.77836548 88.49294189 -10.71649048 103.09544189 -10.65274048 118.14044189 C38.18725952 118.14044189 87.02725952 118.14044189 137.34725952 118.14044189 C137.47100952 96.26762939 137.47100952 96.26762939 137.59725952 73.95294189 C137.63367554 69.35203613 137.67009155 64.75113037 137.70761108 60.01080322 C137.72099044 55.87948444 137.72099044 55.87948444 137.72903442 51.74815369 C137.73516887 49.91083399 137.74922107 48.07353021 137.76956177 46.23631287 C137.79886381 43.44992178 137.80288296 40.66451292 137.80136108 37.87799072 C137.82294973 36.65430015 137.82294973 36.65430015 137.84497452 35.40588856 C137.81743878 31.63693899 137.58452777 29.55963347 135.69387817 26.21934509 C129.77093111 20.97212114 122.51179706 21.84985817 115.02719116 21.86578369 C113.78910202 21.86067276 112.55101288 21.85556183 111.27540588 21.85029602 C107.89102058 21.83879974 104.50688065 21.83632284 101.12249303 21.83885932 C98.29205382 21.83993167 95.46163703 21.83503896 92.63120264 21.8302539 C85.95133269 21.81917258 79.27151898 21.81871364 72.59164429 21.82476807 C65.71151164 21.83080831 58.83158346 21.81849253 51.95148569 21.797198 C46.03366899 21.77955856 40.11591724 21.7735843 34.19807523 21.77683574 C30.66834571 21.77864491 27.13876208 21.77604912 23.60905647 21.7621212 C19.67153073 21.74716427 15.73426372 21.7565335 11.79672241 21.76812744 C10.63442108 21.7604837 9.47211975 21.75283997 8.27459717 21.7449646 C1.28001551 21.79047837 -4.07194274 22.05991964 -9.56895447 26.78894043 Z M-52.65274048 145.14044189 C-53.89227007 148.85903066 -53.79749463 152.30567824 -53.79318237 156.17854309 C-53.7961535 157.00709539 -53.79912462 157.83564769 -53.80218577 158.68930763 C-53.81088258 161.47584494 -53.81238187 164.26233934 -53.81387329 167.04888916 C-53.8185009 169.04293408 -53.82352548 171.03697812 -53.82891846 173.03102112 C-53.84205304 178.45696137 -53.84848989 183.88288923 -53.85292912 189.3088429 C-53.85585913 192.69950289 -53.85996388 196.0901595 -53.86443329 199.48081779 C-53.8781132 210.09120371 -53.88777651 220.70158189 -53.89163518 231.31197602 C-53.89611234 243.55587438 -53.91364231 255.79966091 -53.94263577 268.04352528 C-53.96426989 277.5086342 -53.97434044 286.97371171 -53.9756763 296.4388451 C-53.97672341 302.09089672 -53.98261091 307.74284328 -54.00049591 313.39486885 C-54.01700562 318.7160852 -54.01911795 324.03711788 -54.0103569 329.35835075 C-54.00958799 331.3069648 -54.01390996 333.25558883 -54.02381516 335.20417786 C-54.34978852 351.77864467 -54.34978852 351.77864467 -47.89883423 366.73419189 C-47.37660278 367.46766846 -46.85437134 368.20114502 -46.3163147 368.95684814 C-43.54162658 372.5988808 -40.66644557 376.14034409 -37.71524048 379.64044189 C-33.96084627 384.12294327 -30.26862221 388.58776152 -26.84024048 393.32794189 C-21.08852709 400.82259873 -13.11868273 404.66225349 -3.88069916 405.93239784 C1.03140018 406.39108366 5.9718232 406.28760969 10.90097046 406.28570557 C12.1522876 406.28906418 13.40360474 406.29242279 14.69284058 406.29588318 C18.11042967 406.30373309 21.52795798 406.30705947 24.94555187 406.30769897 C27.08594965 406.30841208 29.22634115 406.31055137 31.36673737 406.31319618 C38.8488556 406.32243592 46.33095608 406.32653289 53.81307983 406.32574463 C60.76297504 406.32514457 67.71279245 406.33568584 74.66266799 406.35148829 C80.64934709 406.36461051 86.6360009 406.36992655 92.62269425 406.36928922 C96.18939597 406.36903556 99.75602851 406.3718132 103.32271576 406.38246727 C107.30718713 406.39404529 111.29148677 406.38937292 115.27597046 406.38336182 C116.44102112 406.38898132 117.60607178 406.39460083 118.806427 406.40039062 C130.08057275 406.3573552 140.35762242 405.51833572 149.34725952 398.14044189 C152.77374836 394.57429995 155.88495179 390.83334134 158.93417358 386.94317627 C160.36644757 385.11596288 161.81943402 383.30693932 163.27694702 381.49981689 C176.58725588 364.90944369 180.80815789 353.65969467 180.73544312 332.35797119 C180.73951273 330.3547792 180.74485679 328.35158946 180.75137329 326.34840393 C180.76500186 320.93142134 180.75976784 315.51461094 180.75023603 310.09762549 C180.74262158 304.42250603 180.74968952 298.74740095 180.75439453 293.07228088 C180.75984465 283.54899455 180.75267765 274.02577815 180.7383728 264.50250244 C180.72202431 253.49150275 180.72735378 242.48066952 180.74385202 231.46967381 C180.75746012 222.008736 180.75939055 212.54784831 180.75153601 203.08690387 C180.7468588 197.43904407 180.74623649 191.79126259 180.75614548 186.14340782 C180.7648038 180.83850605 180.75881392 175.53381946 180.74146271 170.22894096 C180.73749282 168.28145454 180.73864047 166.33395004 180.7452507 164.38647079 C180.7534358 161.73041923 180.74318169 159.07505948 180.72821045 156.41905212 C180.7382487 155.26050005 180.7382487 155.26050005 180.74848974 154.07854289 C180.68694554 148.45846435 179.4521237 145.43792656 175.7093029 141.35259247 C172.10748117 139.50421393 168.51101107 139.7209458 164.55456543 139.74603271 C163.20821669 139.73689606 163.20821669 139.73689606 161.83466899 139.72757483 C158.8206716 139.71089755 155.80709449 139.71572741 152.7930603 139.72052002 C150.6347408 139.71318241 148.47642522 139.70459709 146.31811523 139.69485474 C140.45033316 139.67259693 134.58269133 139.66971022 128.71487284 139.67160225 C123.81912829 139.67172176 118.92341366 139.6631655 114.02767742 139.65482473 C102.47874837 139.63557507 90.92989162 139.63271245 79.38095093 139.63946533 C67.46116952 139.64610674 55.54169752 139.62324109 43.62197888 139.5861516 C33.39342083 139.55547748 23.16496242 139.54409212 12.93635929 139.54798841 C6.82497209 139.55005837 0.71382556 139.54453855 -5.39751816 139.52009583 C-11.14482942 139.49786943 -16.89163699 139.4996727 -22.63895035 139.52002335 C-24.74888752 139.5234407 -26.85885834 139.51831324 -28.96875 139.50403976 C-31.84845012 139.48590216 -34.72643154 139.49855577 -37.6060791 139.51898193 C-38.85978375 139.50020516 -38.85978375 139.50020516 -40.13881576 139.48104906 C-45.98084949 139.56994418 -48.62197151 140.86500184 -52.65274048 145.14044189 Z M21.34725952 428.14044189 C21.34725952 442.00044189 21.34725952 455.86044189 21.34725952 470.14044189 C49.06725952 470.14044189 76.78725952 470.14044189 105.34725952 470.14044189 C105.34725952 456.28044189 105.34725952 442.42044189 105.34725952 428.14044189 C77.62725952 428.14044189 49.90725952 428.14044189 21.34725952 428.14044189 Z " fill="#000000" transform="translate(192.65274047851563,9.85955810546875)"/>
<path d="M0 0 C3.02508145 1.73602105 5.41790069 3.83580137 7 7 C7.12258264 9.74528831 7.18571787 12.46686032 7.20532227 15.21337891 C7.21522186 16.0622316 7.22512146 16.91108429 7.23532104 17.78565979 C7.26697917 20.59926538 7.29171049 23.41288788 7.31640625 26.2265625 C7.33697206 28.17427008 7.35796843 30.12197316 7.37937927 32.06967163 C7.43463852 37.2021521 7.48403079 42.33467311 7.53222656 47.46722412 C7.58241348 52.70214455 7.63811419 57.93700594 7.69335938 63.171875 C7.80098806 73.44786626 7.90242256 83.72390873 8 94 C19.93811983 87.74536479 19.93811983 87.74536479 28.04089355 77.54998779 C29.37562762 71.21882382 28.85133178 64.8431701 28.375 58.4375 C28.24089568 55.58730081 28.1343515 52.73863313 28.05166626 49.88648987 C27.99258603 48.12643367 27.89983032 46.36708302 27.7684021 44.61094666 C27.53568635 40.17076497 27.51781293 38.6107802 30.37744141 34.98852539 C34.05601633 32.19928756 36.29066199 31.65546213 40.96484375 31.71484375 C44.19035622 32.16678696 45.80900197 33.68011974 48 36 C49.84385551 39.03886571 50.25858542 41.32277261 50.29052734 44.85693359 C50.30328705 45.81828217 50.31604675 46.77963074 50.32919312 47.77011108 C50.33141876 48.8024588 50.33364441 49.83480652 50.3359375 50.8984375 C50.3459227 52.50001205 50.3459227 52.50001205 50.35610962 54.13394165 C50.36623052 56.39168577 50.37092681 58.64945978 50.37060547 60.90722656 C50.37497506 64.35532119 50.4112922 67.8021321 50.44921875 71.25 C50.45508775 73.44530813 50.45905659 75.64062233 50.4609375 77.8359375 C50.47530853 78.86423676 50.48967957 79.89253601 50.50448608 80.95199585 C50.4672003 86.81550644 50.05071897 90.42613204 46 95 C44.10327148 96.74414062 44.10327148 96.74414062 42.12109375 98.15625 C41.36248047 98.70539063 40.60386719 99.25453125 39.82226562 99.8203125 C39.03529297 100.37460937 38.24832031 100.92890625 37.4375 101.5 C35.02641683 103.23103407 32.6327444 104.96444023 30.27905273 106.7734375 C27.56291519 108.61776587 25.11093409 109.91373177 22.16040039 111.2890625 C16.3620004 114.28986418 11.50008225 117.35846262 8 123 C4.97807902 134.10083657 5.98988581 146.06748763 6.46496582 157.45159912 C6.69070689 163.34982609 6.76514676 169.25224298 6.85496521 175.15380859 C6.90289488 178.28830929 6.99311625 181.41699615 7.11830139 184.54931641 C7.16053892 185.97948601 7.20257737 187.40966151 7.24438477 188.83984375 C7.29281021 190.08113037 7.34123566 191.32241699 7.39112854 192.60131836 C6.9183022 196.70990679 5.57497233 198.8083402 3 202 C-0.71453232 203.85726616 -4.95579425 203.58501089 -9 203 C-11.82424288 200.80977082 -13.41508603 199.16982793 -15 196 C-15.02782615 194.43784391 -14.99005448 192.87429464 -14.91967773 191.31347656 C-14.70479488 185.81812481 -14.59219139 180.32755254 -14.51391602 174.82861328 C-14.46341239 172.46349444 -14.38255565 170.09880797 -14.26977539 167.73583984 C-13.30651285 154.59302852 -13.30651285 154.59302852 -17.67590332 142.61331177 C-21.85323129 138.35942528 -26.65968973 135.24558011 -31.80508423 132.28094482 C-34.62216422 130.63690724 -37.18366526 128.72479062 -39.7734375 126.74609375 C-42.1006151 125.06599441 -44.4340706 123.395506 -46.7734375 121.73242188 C-51.41022939 118.37623045 -55.38211687 115.23576626 -58 110 C-58.11003711 108.45950329 -58.15907314 106.91443478 -58.17700195 105.37011719 C-58.18983719 104.40861755 -58.20267242 103.44711792 -58.21589661 102.45648193 C-58.22328354 101.41381165 -58.23067047 100.37114136 -58.23828125 99.296875 C-58.25038887 97.6910556 -58.25038887 97.6910556 -58.26274109 96.05279541 C-58.27658978 93.78309757 -58.28730841 91.51337883 -58.29516602 89.24365234 C-58.31236149 85.7779165 -58.35623964 82.31313867 -58.40039062 78.84765625 C-58.41051891 76.64323619 -58.41903459 74.43880801 -58.42578125 72.234375 C-58.44328934 71.19980164 -58.46079742 70.16522827 -58.47883606 69.0993042 C-58.46076212 63.08133689 -58.04402354 59.56756556 -54 55 C-50.4300734 52.71921356 -47.24120155 52.85540635 -43.0625 53.125 C-39.74755253 54.53134135 -37.7248502 56.92285354 -36 60 C-35.47606958 63.06051251 -35.72251424 65.97815181 -35.9609375 69.0625 C-36.02248473 70.8475146 -36.0796324 72.63268529 -36.1328125 74.41796875 C-36.23937627 77.20378027 -36.37320233 79.97650966 -36.5859375 82.75634766 C-36.65039062 83.65788574 -36.71484375 84.55942383 -36.78125 85.48828125 C-36.84812012 86.28145752 -36.91499023 87.07463379 -36.98388672 87.8918457 C-36.93664446 96.13939881 -36.93664446 96.13939881 -33.06163406 103.12696838 C-30.57921662 105.11463607 -28.04169132 106.89103814 -25.38134766 108.6328125 C-24.03487907 109.56589233 -24.03487907 109.56589233 -22.66120911 110.51782227 C-20.45751506 112.03936606 -18.23898519 113.53111079 -16 115 C-15.99945523 114.44892767 -15.99891047 113.89785534 -15.99834919 113.33008385 C-15.98336869 99.9087222 -15.9405552 86.48769644 -15.86790943 73.06651878 C-15.83361706 66.57603711 -15.80852587 60.0857914 -15.80444336 53.59521484 C-15.80016538 47.33155043 -15.77174296 41.06841851 -15.72656822 34.8049202 C-15.71357742 32.41515835 -15.7092911 30.02533283 -15.71384621 27.63554001 C-15.7187406 24.28817986 -15.69270846 20.94238289 -15.65942383 17.59521484 C-15.66804947 16.60690674 -15.67667511 15.61859863 -15.68556213 14.6003418 C-15.61068915 10.10929423 -15.46813279 6.97637354 -12.58378601 3.40029907 C-8.67550353 -0.23043768 -5.24927721 -0.89598053 0 0 Z " fill="#000000" transform="translate(260,181)"/>
<path d="M0 0 C2.08153061 -0.01186678 4.16006456 -0.06102303 6.2409668 -0.11157227 C17.38163524 -0.25012901 17.38163524 -0.25012901 21.16479492 2.67553711 C24.1934086 6.60213754 24.82013635 9.53113901 24.28588867 14.42553711 C22.32753633 18.27230064 20.87139605 20.03519886 17.28588867 22.42553711 C13.03834906 22.83481421 8.78164894 22.79714113 4.5168457 22.79614258 C2.42470429 22.80050828 0.33468706 22.83681332 -1.75708008 22.87475586 C-3.09431248 22.8806261 -4.43155486 22.88459411 -5.76879883 22.88647461 C-6.98035645 22.89469238 -8.19191406 22.90291016 -9.44018555 22.91137695 C-13.31885573 22.33579502 -14.93340978 21.12911986 -17.71411133 18.42553711 C-20.00265127 15.15619433 -20.1857335 12.35572191 -19.71411133 8.42553711 C-14.71455253 -0.53918901 -9.49710271 0.02564675 0 0 Z " fill="#000000" transform="translate(285.714111328125,52.574462890625)"/>
<path d="M0 0 C2.08153061 -0.01186678 4.16006456 -0.06102303 6.2409668 -0.11157227 C17.38163524 -0.25012901 17.38163524 -0.25012901 21.16479492 2.67553711 C24.1934086 6.60213754 24.82013635 9.53113901 24.28588867 14.42553711 C22.32753633 18.27230064 20.87139605 20.03519886 17.28588867 22.42553711 C13.03834906 22.83481421 8.78164894 22.79714113 4.5168457 22.79614258 C2.42470429 22.80050828 0.33468706 22.83681332 -1.75708008 22.87475586 C-3.09431248 22.8806261 -4.43155486 22.88459411 -5.76879883 22.88647461 C-6.98035645 22.89469238 -8.19191406 22.90291016 -9.44018555 22.91137695 C-13.31885573 22.33579502 -14.93340978 21.12911986 -17.71411133 18.42553711 C-20.00265127 15.15619433 -20.1857335 12.35572191 -19.71411133 8.42553711 C-14.71455253 -0.53918901 -9.49710271 0.02564675 0 0 Z " fill="#000000" transform="translate(221.714111328125,52.574462890625)"/>
</svg>
